<?xml version="1.0" encoding="utf-8"?>
<!-- Generator: Adobe Illustrator 26.0.2, SVG Export Plug-In . SVG Version: 6.00 Build 0)  -->
<svg version="1.1" id="Layer_1" xmlns="http://www.w3.org/2000/svg" xmlns:xlink="http://www.w3.org/1999/xlink" x="0px" y="0px"
	 viewBox="0 0 1066.58 8192" style="enable-background:new 0 0 1066.58 8192;" xml:space="preserve">
<style type="text/css">
	.st0{fill:url(#SVGID_1_);}
	.st1{fill:#FFFFFF;stroke:#D6EEFF;stroke-width:0.6046;stroke-miterlimit:1.4075;}
	.st2{fill:#FFFFFF;stroke:#D6EEFF;stroke-width:0.4615;stroke-miterlimit:1.4075;}
	.st3{fill:#FFFFFF;stroke:#D6EEFF;stroke-width:0.3538;stroke-miterlimit:1.4075;}
	.st4{fill:#FFFFFF;stroke:#D6EEFF;stroke-width:0.232;stroke-miterlimit:1.4075;}
	.st5{fill:#FFFFFF;stroke:#D6EEFF;stroke-width:0.3503;stroke-miterlimit:1.4075;}
	.st6{fill:#FFFFFF;stroke:#D6EEFF;stroke-width:0.2997;stroke-miterlimit:1.4075;}
</style>
<linearGradient id="SVGID_1_" gradientUnits="userSpaceOnUse" x1="1588.6816" y1="-10979.8828" x2="1588.6816" y2="-34259.2227" gradientTransform="matrix(0.3519 0 0 0.3519 -199.8302 12055.8213)">
	<stop  offset="0" style="stop-color:#F4AFAB"/>
	<stop  offset="0.2125" style="stop-color:#D6EEC9"/>
	<stop  offset="0.3538" style="stop-color:#D6EEDE"/>
	<stop  offset="0.5768" style="stop-color:#D6EEF1"/>
	<stop  offset="0.775" style="stop-color:#D6EEFB"/>
	<stop  offset="1" style="stop-color:#D6EEFF"/>
</linearGradient>
<rect class="st0" width="718.45" height="8192"/>
<path class="st1" d="M94.66,82.45c-14.01,3.67-16.21,18.13-15.55,24.9c-6.48,3.95-17.67,15.22-10.61,28.79
	c8.84,16.96,21.56,13.24,27.93,12.36c14.31,24.02,30.94,12.01,37.3,7.6c23.05,15.97,35.18-1.59,38.36-12.36
	c8.25,0.65,25.1-1.9,26.52-17.31c1.76-19.25-7.96-22.25-15.92-25.78c-10.61-25.61-29.34-15.89-36.59-11.66
	c-13.71-11.86-25.52-5.65-29.7-1.06C114.98,84.57,108.66,78.78,94.66,82.45z"/>
<path class="st1" d="M227.08,286.53c-14.01,3.67-16.21,18.13-15.55,24.9c-6.48,3.95-17.67,15.22-10.61,28.79
	c8.84,16.96,21.56,13.24,27.93,12.36c14.31,24.02,30.94,12.01,37.3,7.6c23.05,15.97,35.18-1.59,38.36-12.36
	c8.25,0.65,25.1-1.9,26.52-17.31c1.77-19.25-7.96-22.25-15.9-25.78c-10.61-25.61-29.34-15.89-36.59-11.66
	c-13.71-11.86-25.52-5.65-29.7-1.06C247.41,288.65,241.07,282.85,227.08,286.53z"/>
<path class="st1" d="M96.12,594.33c-14.01,3.67-16.21,18.13-15.55,24.9c-6.48,3.95-17.67,15.22-10.61,28.79
	c8.84,16.96,21.56,13.24,27.93,12.36c14.31,24.02,30.94,12.01,37.3,7.6c23.05,15.97,35.18-1.59,38.36-12.36
	c8.25,0.65,25.1-1.9,26.52-17.31c1.77-19.25-7.96-22.25-15.9-25.78c-10.61-25.61-29.34-15.89-36.59-11.66
	c-13.71-11.86-25.52-5.65-29.7-1.06C116.46,596.45,110.13,590.66,96.12,594.33z"/>
<path class="st2" d="M476.11,767.35c-10.69,2.8-12.38,13.84-11.87,19.01c-4.95,3.01-13.49,11.62-8.1,21.97
	c6.75,12.94,16.46,10.11,21.31,9.44c10.93,18.33,23.61,9.16,28.46,5.8c17.59,12.18,26.86-1.21,29.28-9.44
	c6.3,0.5,19.15-1.46,20.24-13.21c1.35-14.69-6.06-16.98-12.14-19.68c-8.1-19.54-22.4-12.13-27.92-8.9
	c-10.47-9.06-19.47-4.31-22.68-0.81C491.63,768.96,486.8,764.54,476.11,767.35z"/>
<path class="st2" d="M218.63,864.78c-10.69,2.8-12.38,13.84-11.87,19.01c-4.95,3.01-13.49,11.62-8.1,21.97
	c6.75,12.94,16.46,10.11,21.31,9.44c10.93,18.33,23.61,9.16,28.46,5.8c17.59,12.18,26.86-1.21,29.28-9.44
	c6.3,0.5,19.15-1.46,20.24-13.21c1.35-14.69-6.06-16.98-12.14-19.68c-8.1-19.54-22.4-12.13-27.92-8.9
	c-10.47-9.06-19.47-4.31-22.68-0.81C234.15,866.39,229.31,861.97,218.63,864.78z"/>
<path class="st3" d="M114.02,1064.76c-8.2,2.15-9.48,10.61-9.12,14.58c-3.79,2.31-10.34,8.91-6.22,16.85
	c5.17,9.93,12.61,7.75,16.35,7.24c8.38,14.05,18.11,7.03,21.84,4.44c13.49,9.35,20.59-0.93,22.45-7.24
	c4.84,0.38,14.69-1.12,15.53-10.13c1.03-11.27-4.66-13.03-9.31-15.09c-6.22-14.99-17.17-9.3-21.42-6.82
	c-8.03-6.95-14.93-3.31-17.38-0.62C125.92,1066,122.21,1062.61,114.02,1064.76z"/>
<path class="st4" d="M528.89,1033.02c-5.37,1.41-6.22,6.96-5.98,9.55c-2.48,1.51-6.77,5.84-4.07,11.05c3.4,6.5,8.28,5.08,10.72,4.75
	c5.49,9.22,11.87,4.61,14.31,2.91c8.85,6.13,13.51-0.61,14.72-4.75c3.16,0.24,9.63-0.73,10.17-6.64c0.67-7.39-3.05-8.54-6.1-9.89
	c-4.07-9.82-11.26-6.1-14.04-4.48c-5.27-4.55-9.78-2.17-11.4-0.41C536.69,1033.83,534.25,1031.61,528.89,1033.02z"/>
<path class="st2" d="M557.53,471.65c-10.69,2.8-12.38,13.84-11.87,19.01c-4.95,3.01-13.49,11.62-8.1,21.97
	c6.75,12.94,16.46,10.11,21.31,9.44c10.93,18.33,23.61,9.16,28.46,5.8c17.59,12.18,26.86-1.21,29.28-9.44
	c6.3,0.5,19.15-1.46,20.24-13.21c1.35-14.69-6.06-16.98-12.14-19.68c-8.1-19.54-22.4-12.13-27.92-8.9
	c-10.47-9.06-19.47-4.31-22.68-0.81C573.04,473.27,568.22,468.85,557.53,471.65z"/>
<path class="st5" d="M150.38,123.65c-8.11,2.13-9.38,10.5-9.02,14.43c-3.75,2.29-10.24,8.82-6.15,16.68
	c5.12,9.82,12.5,7.67,16.18,7.16c8.29,13.92,17.92,6.96,21.6,4.4c13.35,9.25,20.39-0.92,22.23-7.16c4.78,0.37,14.55-1.1,15.37-10.03
	c1.02-11.16-4.61-12.89-9.21-14.94c-6.15-14.84-17-9.21-21.2-6.76c-7.94-6.87-14.79-3.27-17.21-0.61
	C162.16,124.87,158.49,121.52,150.38,123.65z"/>
<path class="st5" d="M573.64,90.2c-8.11,2.13-9.38,10.5-9.02,14.43c-3.75,2.29-10.24,8.82-6.15,16.68
	c5.12,9.82,12.5,7.67,16.18,7.16c8.29,13.92,17.92,6.96,21.6,4.4c13.37,9.25,20.39-0.92,22.23-7.16c4.78,0.37,14.55-1.1,15.37-10.03
	c1.02-11.16-4.61-12.89-9.21-14.94c-6.15-14.84-17-9.21-21.2-6.76c-7.94-6.87-14.79-3.27-17.21-0.61
	C585.42,91.42,581.74,88.07,573.64,90.2z"/>
<path class="st5" d="M514.04,510.22c-8.11,2.13-9.38,10.5-9.02,14.43c-3.75,2.29-10.24,8.82-6.15,16.68
	c5.12,9.82,12.5,7.67,16.18,7.16c8.29,13.92,17.92,6.96,21.6,4.4c13.35,9.25,20.39-0.92,22.23-7.16c4.78,0.37,14.55-1.1,15.37-10.03
	c1.02-11.16-4.61-12.89-9.21-14.94c-6.15-14.84-17-9.21-21.2-6.76c-7.94-6.87-14.79-3.27-17.21-0.61
	C525.84,511.45,522.17,508.1,514.04,510.22z"/>
<path class="st1" d="M108.87,1200.73c-14.01,3.67-16.21,18.13-15.55,24.9c-6.48,3.95-17.67,15.22-10.61,28.79
	c8.84,16.96,21.56,13.24,27.93,12.36c14.31,24.02,30.94,12.01,37.3,7.6c23.05,15.97,35.18-1.59,38.36-12.36
	c8.25,0.65,25.1-1.9,26.52-17.31c1.77-19.25-7.96-22.25-15.9-25.78c-10.61-25.61-29.34-15.89-36.59-11.66
	c-13.71-11.86-25.52-5.65-29.7-1.06C129.21,1202.86,122.88,1197.06,108.87,1200.73z"/>
<path class="st1" d="M241.31,1404.81c-14.01,3.67-16.21,18.13-15.55,24.9c-6.48,3.95-17.67,15.22-10.61,28.79
	c8.84,16.96,21.56,13.24,27.93,12.36c14.31,24.02,30.94,12.01,37.3,7.6c23.05,15.97,35.18-1.59,38.36-12.36
	c8.25,0.65,25.1-1.9,26.52-17.31c1.77-19.25-7.96-22.25-15.9-25.78c-10.61-25.61-29.34-15.89-36.59-11.66
	c-13.71-11.86-25.52-5.65-29.7-1.06C261.63,1406.92,255.3,1401.13,241.31,1404.81z"/>
<path class="st1" d="M110.35,1712.62c-14.01,3.67-16.21,18.13-15.55,24.9c-6.48,3.95-17.67,15.22-10.61,28.79
	c8.84,16.96,21.56,13.24,27.93,12.36c14.31,24.02,30.94,12.01,37.3,7.6c23.05,15.97,35.18-1.59,38.36-12.36
	c8.25,0.65,25.1-1.9,26.52-17.31c1.77-19.25-7.96-22.25-15.9-25.78c-10.61-25.61-29.34-15.89-36.59-11.66
	c-13.71-11.86-25.52-5.65-29.7-1.06C130.69,1714.73,124.34,1708.94,110.35,1712.62z"/>
<path class="st2" d="M491.33,1863.81c-10.69,2.8-12.38,13.84-11.87,19.01c-4.95,3.01-13.49,11.62-8.1,21.97
	c6.75,12.94,16.46,10.11,21.31,9.44c10.93,18.33,23.61,9.16,28.46,5.8c17.59,12.18,26.86-1.21,29.28-9.44
	c6.3,0.5,19.15-1.46,20.24-13.21c1.35-14.69-6.06-16.98-12.14-19.68c-8.1-19.54-22.4-12.13-27.92-8.9
	c-10.47-9.06-19.47-4.31-22.68-0.81C506.84,1865.43,502,1861.01,491.33,1863.81z"/>
<path class="st2" d="M233.84,1961.24c-10.69,2.8-12.38,13.84-11.87,19.01c-4.95,3.01-13.49,11.62-8.1,21.97
	c6.75,12.94,16.46,10.11,21.31,9.44c10.93,18.33,23.61,9.16,28.46,5.8c17.59,12.18,26.86-1.21,29.28-9.44
	c6.3,0.5,19.15-1.46,20.24-13.21c1.35-14.69-6.06-16.98-12.14-19.68c-8.1-19.54-22.4-12.13-27.92-8.9
	c-10.47-9.06-19.47-4.31-22.68-0.81C249.34,1962.86,244.52,1958.44,233.84,1961.24z"/>
<path class="st3" d="M129.21,2161.23c-8.2,2.15-9.48,10.61-9.12,14.58c-3.79,2.31-10.34,8.91-6.22,16.85
	c5.17,9.93,12.61,7.75,16.35,7.24c8.38,14.05,18.11,7.03,21.84,4.44c13.49,9.35,20.59-0.93,22.45-7.24
	c4.84,0.38,14.69-1.12,15.53-10.13c1.03-11.27-4.66-13.03-9.31-15.09c-6.22-14.99-17.17-9.3-21.42-6.82
	c-8.03-6.95-14.93-3.31-17.38-0.62C141.11,2162.47,137.42,2159.08,129.21,2161.23z"/>
<path class="st4" d="M544.08,2129.49c-5.37,1.41-6.22,6.96-5.98,9.55c-2.48,1.51-6.77,5.84-4.07,11.05c3.4,6.5,8.28,5.08,10.72,4.75
	c5.49,9.22,11.87,4.61,14.31,2.91c8.85,6.13,13.51-0.61,14.72-4.75c3.16,0.24,9.63-0.73,10.17-6.64c0.67-7.39-3.05-8.54-6.1-9.89
	c-4.07-9.82-11.26-6.09-14.04-4.48c-5.27-4.55-9.78-2.17-11.4-0.41C551.88,2130.3,549.46,2128.08,544.08,2129.49z"/>
<path class="st2" d="M571.75,1589.94c-10.69,2.8-12.38,13.84-11.87,19.01c-4.95,3.01-13.49,11.62-8.1,21.97
	c6.75,12.94,16.46,10.11,21.31,9.44c10.93,18.33,23.61,9.16,28.46,5.8c17.59,12.18,26.86-1.21,29.28-9.44
	c6.3,0.5,19.15-1.46,20.24-13.21c1.35-14.69-6.06-16.98-12.14-19.68c-8.1-19.54-22.4-12.13-27.92-8.9
	c-10.47-9.06-19.47-4.31-22.68-0.81C587.26,1591.56,582.44,1587.13,571.75,1589.94z"/>
<path class="st5" d="M164.61,1241.92c-8.11,2.13-9.38,10.5-9.02,14.43c-3.75,2.29-10.24,8.82-6.15,16.68
	c5.12,9.82,12.5,7.67,16.18,7.16c8.29,13.92,17.92,6.96,21.6,4.4c13.37,9.25,20.39-0.92,22.23-7.16c4.78,0.37,14.55-1.1,15.37-10.03
	c1.02-11.16-4.61-12.89-9.21-14.94c-6.15-14.84-17-9.21-21.2-6.76c-7.94-6.88-14.79-3.27-17.21-0.61
	C176.39,1243.16,172.72,1239.8,164.61,1241.92z"/>
<path class="st5" d="M587.86,1208.48c-8.11,2.13-9.38,10.5-9.02,14.43c-3.75,2.29-10.24,8.82-6.15,16.68
	c5.12,9.82,12.5,7.67,16.18,7.16c8.29,13.92,17.92,6.96,21.6,4.4c13.37,9.25,20.39-0.92,22.23-7.16c4.78,0.37,14.55-1.1,15.37-10.03
	c1.02-11.16-4.61-12.89-9.21-14.94c-6.15-14.84-17-9.21-21.2-6.76c-7.94-6.88-14.79-3.27-17.21-0.62
	C599.64,1209.71,595.97,1206.35,587.86,1208.48z"/>
<path class="st5" d="M528.27,1628.5c-8.11,2.13-9.38,10.5-9.02,14.43c-3.75,2.29-10.24,8.82-6.15,16.68
	c5.12,9.82,12.5,7.67,16.18,7.16c8.29,13.92,17.92,6.96,21.6,4.4c13.37,9.25,20.39-0.92,22.23-7.16c4.78,0.37,14.55-1.1,15.37-10.03
	c1.02-11.16-4.61-12.89-9.21-14.94c-6.15-14.84-17-9.21-21.2-6.76c-7.94-6.88-14.79-3.27-17.21-0.62
	C540.05,1629.73,536.39,1626.37,528.27,1628.5z"/>
<path class="st1" d="M109.86,2326.77c-14.01,3.67-16.21,18.13-15.55,24.9c-6.48,3.95-17.67,15.22-10.61,28.78
	c8.84,16.96,21.56,13.24,27.93,12.36c14.31,24.02,30.94,12.01,37.3,7.6c23.05,15.97,35.18-1.59,38.36-12.36
	c8.25,0.65,25.1-1.9,26.52-17.31c1.77-19.25-7.96-22.25-15.9-25.78c-10.61-25.61-29.34-15.89-36.59-11.66
	c-13.71-11.86-25.52-5.65-29.7-1.06C130.2,2328.89,123.87,2323.1,109.86,2326.77z"/>
<path class="st1" d="M242.29,2530.85c-14.01,3.67-16.21,18.13-15.55,24.9c-6.48,3.95-17.67,15.22-10.61,28.78
	c8.84,16.96,21.56,13.24,27.93,12.36c14.31,24.02,30.94,12.01,37.3,7.6c23.05,15.97,35.18-1.59,38.36-12.36
	c8.25,0.65,25.1-1.9,26.52-17.31c1.77-19.25-7.96-22.25-15.9-25.78c-10.61-25.61-29.34-15.89-36.59-11.66
	c-13.71-11.86-25.52-5.65-29.7-1.06C262.61,2532.96,256.28,2527.17,242.29,2530.85z"/>
<path class="st1" d="M111.33,2838.65c-14.01,3.67-16.21,18.13-15.55,24.9c-6.48,3.95-17.67,15.22-10.61,28.78
	c8.84,16.96,21.56,13.25,27.93,12.36c14.31,24.02,30.94,12.01,37.3,7.6c23.05,15.97,35.18-1.59,38.36-12.36
	c8.25,0.65,25.1-1.9,26.52-17.31c1.77-19.25-7.96-22.25-15.9-25.78c-10.61-25.61-29.34-15.9-36.59-11.66
	c-13.71-11.86-25.52-5.65-29.7-1.06C131.66,2840.77,125.33,2834.97,111.33,2838.65z"/>
<path class="st2" d="M491.33,3011.67c-10.69,2.8-12.38,13.84-11.87,19.01c-4.95,3.01-13.49,11.62-8.1,21.97
	c6.75,12.94,16.46,10.11,21.31,9.44c10.93,18.33,23.61,9.16,28.46,5.8c17.59,12.18,26.86-1.21,29.28-9.44
	c6.3,0.5,19.15-1.46,20.24-13.21c1.35-14.69-6.06-16.98-12.14-19.68c-8.1-19.54-22.4-12.13-27.92-8.9
	c-10.47-9.06-19.47-4.31-22.68-0.81C506.84,3013.28,502,3008.86,491.33,3011.67z"/>
<path class="st2" d="M233.84,3109.09c-10.69,2.8-12.38,13.84-11.87,19.01c-4.95,3.01-13.49,11.62-8.1,21.97
	c6.75,12.94,16.46,10.11,21.31,9.44c10.93,18.33,23.61,9.16,28.46,5.8c17.59,12.18,26.86-1.21,29.28-9.44
	c6.3,0.5,19.15-1.46,20.24-13.21c1.35-14.69-6.06-16.98-12.14-19.68c-8.1-19.54-22.4-12.13-27.92-8.9
	c-10.47-9.06-19.47-4.31-22.68-0.81C249.34,3110.71,244.52,3106.29,233.84,3109.09z"/>
<path class="st3" d="M129.21,3309.08c-8.2,2.15-9.48,10.61-9.12,14.58c-3.79,2.31-10.34,8.91-6.22,16.85
	c5.17,9.93,12.61,7.75,16.35,7.24c8.38,14.05,18.11,7.03,21.84,4.44c13.49,9.35,20.59-0.93,22.45-7.24
	c4.84,0.38,14.69-1.12,15.53-10.13c1.03-11.27-4.66-13.03-9.31-15.09c-6.22-14.99-17.17-9.3-21.42-6.82
	c-8.03-6.95-14.93-3.31-17.38-0.62C141.11,3310.32,137.42,3306.93,129.21,3309.08z"/>
<path class="st4" d="M544.08,3277.33c-5.37,1.41-6.22,6.96-5.98,9.55c-2.48,1.51-6.77,5.84-4.07,11.05c3.4,6.5,8.28,5.08,10.72,4.75
	c5.49,9.22,11.87,4.61,14.31,2.91c8.85,6.13,13.51-0.61,14.72-4.75c3.16,0.24,9.63-0.73,10.17-6.64c0.67-7.39-3.05-8.54-6.1-9.89
	c-4.07-9.82-11.26-6.1-14.04-4.48c-5.27-4.55-9.78-2.17-11.4-0.41C551.88,3278.15,549.46,3275.92,544.08,3277.33z"/>
<path class="st2" d="M572.74,2715.98c-10.69,2.8-12.38,13.84-11.87,19.01c-4.95,3.01-13.49,11.62-8.1,21.97
	c6.75,12.94,16.46,10.11,21.31,9.44c10.93,18.33,23.61,9.16,28.46,5.8c17.59,12.18,26.86-1.21,29.28-9.44
	c6.3,0.5,19.15-1.46,20.24-13.21c1.35-14.69-6.06-16.98-12.14-19.68c-8.1-19.54-22.4-12.13-27.92-8.9
	c-10.47-9.06-19.47-4.31-22.68-0.81C588.25,2717.59,583.41,2713.17,572.74,2715.98z"/>
<path class="st5" d="M165.59,2367.96c-8.11,2.13-9.38,10.5-9.02,14.43c-3.75,2.29-10.24,8.82-6.15,16.68
	c5.12,9.82,12.5,7.67,16.18,7.16c8.29,13.92,17.92,6.96,21.6,4.4c13.37,9.25,20.39-0.92,22.23-7.16c4.78,0.37,14.55-1.1,15.37-10.03
	c1.02-11.16-4.61-12.89-9.21-14.94c-6.15-14.84-17-9.21-21.2-6.75c-7.94-6.87-14.79-3.27-17.21-0.62
	C177.36,2369.19,173.7,2365.83,165.59,2367.96z"/>
<path class="st5" d="M588.83,2334.52c-8.11,2.13-9.38,10.5-9.02,14.43c-3.75,2.29-10.24,8.82-6.15,16.68
	c5.12,9.82,12.5,7.67,16.18,7.16c8.29,13.92,17.92,6.96,21.6,4.4c13.37,9.25,20.39-0.92,22.23-7.16c4.78,0.37,14.55-1.1,15.37-10.03
	c1.02-11.16-4.61-12.89-9.21-14.94c-6.15-14.84-17-9.21-21.2-6.75c-7.94-6.87-14.79-3.27-17.21-0.61
	C600.63,2335.74,596.96,2332.39,588.83,2334.52z"/>
<path class="st5" d="M529.25,2754.54c-8.11,2.13-9.38,10.5-9.02,14.43c-3.75,2.29-10.24,8.82-6.15,16.68
	c5.12,9.82,12.5,7.67,16.18,7.16c8.29,13.92,17.92,6.96,21.6,4.4c13.37,9.25,20.39-0.92,22.23-7.16c4.78,0.37,14.55-1.1,15.37-10.03
	c1.02-11.16-4.61-12.89-9.21-14.94c-6.15-14.84-17-9.21-21.2-6.76c-7.94-6.87-14.79-3.27-17.21-0.62
	C541.03,2755.76,537.36,2752.41,529.25,2754.54z"/>
<path class="st1" d="M109.86,3492.07c-14.01,3.67-16.21,18.13-15.55,24.9c-6.48,3.95-17.67,15.22-10.61,28.78
	c8.84,16.96,21.56,13.24,27.93,12.36c14.31,24.02,30.94,12.01,37.3,7.6c23.05,15.97,35.18-1.59,38.36-12.36
	c8.25,0.65,25.1-1.9,26.52-17.31c1.77-19.25-7.96-22.25-15.9-25.78c-10.61-25.61-29.34-15.89-36.59-11.66
	c-13.71-11.86-25.52-5.65-29.7-1.06C130.2,3494.19,123.87,3488.39,109.86,3492.07z"/>
<path class="st1" d="M242.29,3696.14c-14.01,3.67-16.21,18.13-15.55,24.9c-6.48,3.95-17.67,15.22-10.61,28.78
	c8.84,16.96,21.56,13.24,27.93,12.36c14.31,24.02,30.94,12.01,37.3,7.6c23.05,15.97,35.18-1.59,38.36-12.36
	c8.25,0.65,25.1-1.9,26.52-17.31c1.77-19.25-7.96-22.25-15.9-25.78c-10.61-25.61-29.34-15.9-36.59-11.66
	c-13.71-11.86-25.52-5.65-29.7-1.06C262.61,3698.26,256.28,3692.47,242.29,3696.14z"/>
<path class="st1" d="M111.33,4003.95c-14.01,3.67-16.21,18.13-15.55,24.9c-6.48,3.95-17.67,15.22-10.61,28.78
	c8.84,16.96,21.56,13.25,27.93,12.36c14.31,24.02,30.94,12.01,37.3,7.6c23.05,15.97,35.18-1.59,38.36-12.36
	c8.25,0.65,25.1-1.9,26.52-17.31c1.77-19.25-7.96-22.25-15.9-25.78c-10.61-25.61-29.34-15.89-36.59-11.65
	c-13.71-11.86-25.52-5.65-29.7-1.06C131.66,4006.06,125.33,4000.28,111.33,4003.95z"/>
<path class="st2" d="M491.33,4176.96c-10.69,2.8-12.38,13.84-11.87,19.01c-4.95,3.01-13.49,11.62-8.1,21.97
	c6.75,12.94,16.46,10.11,21.31,9.44c10.93,18.33,23.61,9.16,28.46,5.8c17.59,12.18,26.86-1.21,29.28-9.44
	c6.3,0.5,19.15-1.46,20.24-13.21c1.35-14.69-6.06-16.98-12.14-19.68c-8.1-19.54-22.4-12.13-27.92-8.9
	c-10.47-9.05-19.47-4.31-22.68-0.81C506.84,4178.58,502,4174.16,491.33,4176.96z"/>
<path class="st2" d="M233.84,4274.39c-10.69,2.8-12.38,13.84-11.87,19.01c-4.95,3.01-13.49,11.62-8.1,21.97
	c6.75,12.94,16.46,10.11,21.31,9.44c10.93,18.33,23.61,9.16,28.46,5.8c17.59,12.18,26.86-1.21,29.28-9.44
	c6.3,0.5,19.15-1.46,20.24-13.21c1.35-14.69-6.06-16.98-12.14-19.68c-8.1-19.54-22.4-12.13-27.92-8.9
	c-10.47-9.05-19.47-4.31-22.68-0.81C249.34,4276.01,244.52,4271.59,233.84,4274.39z"/>
<path class="st6" d="M111.42,4474.38c-5.88,2.15-6.8,10.61-6.54,14.58c-2.72,2.31-7.42,8.91-4.46,16.85
	c3.71,9.93,9.05,7.75,11.73,7.24c6.01,14.05,12.99,7.03,15.67,4.44c9.68,9.35,14.77-0.93,16.11-7.24
	c3.47,0.38,10.54-1.12,11.14-10.13c0.74-11.27-3.34-13.03-6.68-15.09c-4.46-14.99-12.32-9.3-15.37-6.82
	c-5.76-6.95-10.71-3.31-12.47-0.62C119.96,4475.62,117.31,4472.23,111.42,4474.38z"/>
<path class="st4" d="M544.08,4442.63c-5.37,1.41-6.22,6.96-5.98,9.55c-2.48,1.51-6.77,5.84-4.07,11.05c3.4,6.5,8.28,5.09,10.72,4.75
	c5.49,9.22,11.87,4.61,14.31,2.91c8.85,6.13,13.51-0.61,14.72-4.75c3.16,0.24,9.63-0.73,10.17-6.64c0.67-7.39-3.05-8.54-6.1-9.89
	c-4.07-9.82-11.26-6.09-14.04-4.48c-5.27-4.55-9.78-2.17-11.4-0.41C551.88,4443.44,549.46,4441.23,544.08,4442.63z"/>
<path class="st2" d="M572.74,3881.28c-10.69,2.8-12.38,13.84-11.87,19.01c-4.95,3.01-13.49,11.62-8.1,21.97
	c6.75,12.94,16.46,10.11,21.31,9.44c10.93,18.33,23.61,9.17,28.46,5.8c17.59,12.18,26.86-1.21,29.28-9.44
	c6.3,0.5,19.15-1.46,20.24-13.21c1.35-14.69-6.06-16.98-12.14-19.68c-8.1-19.54-22.4-12.13-27.92-8.9
	c-10.47-9.06-19.47-4.31-22.68-0.81C588.25,3882.89,583.41,3878.47,572.74,3881.28z"/>
<path class="st5" d="M165.59,3533.26c-8.11,2.13-9.38,10.5-9.02,14.43c-3.75,2.29-10.24,8.82-6.15,16.68
	c5.12,9.82,12.5,7.67,16.18,7.16c8.29,13.92,17.92,6.96,21.6,4.4c13.37,9.25,20.39-0.92,22.23-7.16c4.78,0.37,14.55-1.1,15.37-10.03
	c1.02-11.16-4.61-12.89-9.21-14.94c-6.15-14.84-17-9.21-21.2-6.76c-7.94-6.87-14.79-3.27-17.21-0.61
	C177.36,3534.49,173.7,3531.13,165.59,3533.26z"/>
<path class="st5" d="M588.83,3499.81c-8.11,2.13-9.38,10.5-9.02,14.43c-3.75,2.29-10.24,8.82-6.15,16.68
	c5.12,9.82,12.5,7.67,16.18,7.16c8.29,13.92,17.92,6.96,21.6,4.4c13.37,9.25,20.39-0.92,22.23-7.16c4.78,0.37,14.55-1.1,15.37-10.03
	c1.02-11.16-4.61-12.89-9.21-14.94c-6.15-14.84-17-9.21-21.2-6.76c-7.94-6.87-14.79-3.27-17.21-0.62
	C600.63,3501.04,596.96,3497.69,588.83,3499.81z"/>
<path class="st5" d="M529.25,3919.84c-8.11,2.13-9.38,10.5-9.02,14.43c-3.75,2.29-10.24,8.82-6.15,16.68
	c5.12,9.82,12.5,7.67,16.18,7.16c8.29,13.92,17.92,6.96,21.6,4.4c13.37,9.25,20.39-0.92,22.23-7.16c4.78,0.37,14.55-1.1,15.37-10.03
	c1.02-11.16-4.61-12.89-9.21-14.94c-6.15-14.84-17-9.21-21.2-6.76c-7.94-6.87-14.79-3.27-17.21-0.62
	C541.03,3921.07,537.36,3917.71,529.25,3919.84z"/>
</svg>
