<?xml version="1.0" encoding="utf-8"?>
<!-- Generator: Adobe Illustrator 26.0.2, SVG Export Plug-In . SVG Version: 6.00 Build 0)  -->
<svg version="1.1" id="Layer_1" xmlns="http://www.w3.org/2000/svg" xmlns:xlink="http://www.w3.org/1999/xlink" x="0px" y="0px"
	 viewBox="0 0 1404 15837" style="enable-background:new 0 0 1404 15837;" xml:space="preserve">
<style type="text/css">
	.st0{fill:url(#SVGID_1_);}
	.st1{fill:#FFFFFF;stroke:#D6EEFF;stroke-width:1.24;}
	.st2{fill:#FFFFFF;stroke:#D6EEFF;stroke-width:0.9464;}
	.st3{fill:#FFFFFF;stroke:#D6EEFF;stroke-width:0.7258;}
	.st4{fill:#FFFFFF;stroke:#D6EEFF;stroke-width:0.4758;}
	.st5{fill:#FFFFFF;stroke:#D6EEFF;stroke-width:0.7185;}
</style>
<linearGradient id="SVGID_1_" gradientUnits="userSpaceOnUse" x1="702" y1="15837" x2="702" y2="0">
	<stop  offset="0" style="stop-color:#D6EEC9"/>
	<stop  offset="0.2051" style="stop-color:#D6EEDE"/>
	<stop  offset="0.4515" style="stop-color:#D6EEF1"/>
	<stop  offset="0.7105" style="stop-color:#D6EEFB"/>
	<stop  offset="1" style="stop-color:#D6EEFF"/>
</linearGradient>
<rect x="0" class="st0" width="1404" height="15837"/>
<path class="st1" d="M147.13,120.22c-28.55,7.58-33.04,37.4-31.72,51.37c-13.22,8.14-36.04,31.4-21.63,59.39
	c18.02,34.98,43.97,27.32,56.95,25.5c29.2,49.55,63.08,24.77,76.05,15.67c47,32.94,71.73-3.28,78.22-25.5
	c16.82,1.34,51.18-3.93,54.07-35.7c3.6-39.71-16.22-45.9-32.44-53.19c-21.63-52.83-59.83-32.79-74.61-24.05
	c-27.97-24.48-52.02-11.66-60.55-2.19C188.58,124.59,175.68,112.64,147.13,120.22z"/>
<path class="st1" d="M417.13,541.22c-28.55,7.58-33.04,37.4-31.72,51.37c-13.22,8.14-36.04,31.4-21.63,59.39
	c18.02,34.98,43.97,27.32,56.95,25.5c29.2,49.55,63.08,24.77,76.05,15.67c47,32.94,71.73-3.28,78.22-25.5
	c16.82,1.34,51.18-3.93,54.07-35.7c3.6-39.71-16.22-45.9-32.44-53.19c-21.63-52.83-59.83-32.79-74.61-24.05
	c-27.97-24.48-52.02-11.66-60.55-2.19C458.58,545.59,445.68,533.64,417.13,541.22z"/>
<path class="st1" d="M150.13,1176.22c-28.55,7.58-33.04,37.4-31.72,51.37c-13.22,8.14-36.04,31.4-21.63,59.39
	c18.02,34.98,43.97,27.32,56.95,25.5c29.2,49.55,63.08,24.77,76.05,15.67c47,32.94,71.73-3.28,78.22-25.5
	c16.82,1.34,51.18-3.93,54.07-35.7c3.6-39.71-16.22-45.9-32.44-53.19c-21.63-52.83-59.83-32.79-74.61-24.05
	c-27.97-24.48-52.02-11.66-60.55-2.19C191.58,1180.59,178.68,1168.64,150.13,1176.22z"/>
<path class="st2" d="M924.91,1533.14c-21.79,5.78-25.22,28.55-24.21,39.21c-10.09,6.21-27.51,23.97-16.51,45.32
	c13.75,26.69,33.56,20.85,43.46,19.46c22.28,37.82,48.14,18.91,58.04,11.96c35.87,25.14,54.74-2.5,59.7-19.46
	c12.84,1.02,39.06-3,41.26-27.25c2.75-30.31-12.38-35.03-24.76-40.6c-16.51-40.32-45.67-25.02-56.94-18.35
	c-21.35-18.69-39.7-8.9-46.22-1.67C956.54,1536.48,946.69,1527.36,924.91,1533.14z"/>
<path class="st2" d="M399.91,1734.14c-21.79,5.78-25.22,28.55-24.21,39.21c-10.09,6.21-27.51,23.97-16.51,45.32
	c13.75,26.69,33.56,20.85,43.46,19.46c22.28,37.82,48.14,18.91,58.04,11.96c35.87,25.14,54.74-2.5,59.7-19.46
	c12.84,1.02,39.06-3,41.26-27.25c2.75-30.31-12.38-35.03-24.76-40.6c-16.51-40.32-45.67-25.02-56.94-18.35
	c-21.35-18.69-39.7-8.9-46.22-1.67C431.54,1737.48,421.69,1728.36,399.91,1734.14z"/>
<path class="st3" d="M186.6,2146.71c-16.71,4.44-19.34,21.89-18.57,30.07c-7.74,4.76-21.1,18.38-12.66,34.76
	c10.55,20.47,25.74,15.99,33.33,14.93c17.09,29,36.92,14.5,44.52,9.17c27.51,19.28,41.98-1.92,45.78-14.93
	c9.85,0.78,29.96-2.3,31.65-20.9c2.11-23.24-9.49-26.87-18.99-31.13c-12.66-30.92-35.02-19.19-43.67-14.07
	c-16.37-14.33-30.45-6.82-35.44-1.28C210.86,2149.27,203.31,2142.28,186.6,2146.71z"/>
<path class="st4" d="M1032.5,2081.22c-10.95,2.91-12.68,14.35-12.17,19.71c-5.07,3.12-13.83,12.05-8.3,22.79
	c6.92,13.42,16.87,10.48,21.85,9.79c11.2,19.01,24.2,9.51,29.18,6.01c18.03,12.64,27.52-1.26,30.01-9.79
	c6.45,0.51,19.64-1.51,20.75-13.7c1.38-15.24-6.22-17.61-12.45-20.41c-8.3-20.27-22.96-12.58-28.63-9.23
	c-10.73-9.39-19.96-4.47-23.23-0.84C1048.41,2082.9,1043.45,2078.32,1032.5,2081.22z"/>
<path class="st2" d="M1090.91,923.14c-21.79,5.78-25.22,28.55-24.21,39.21c-10.09,6.21-27.51,23.97-16.51,45.32
	c13.75,26.69,33.56,20.85,43.46,19.46c22.28,37.82,48.14,18.91,58.04,11.96c35.87,25.14,54.74-2.5,59.7-19.46
	c12.84,1.02,39.06-3,41.26-27.25c2.75-30.31-12.38-35.03-24.76-40.6c-16.51-40.32-45.67-25.02-56.94-18.35
	c-21.35-18.69-39.7-8.9-46.22-1.67C1122.54,926.48,1112.69,917.36,1090.91,923.14z"/>
<path class="st5" d="M260.75,205.2c-16.54,4.39-19.14,21.67-18.38,29.76c-7.66,4.71-20.88,18.2-12.53,34.41
	c10.44,20.26,25.48,15.83,33,14.78c16.92,28.71,36.55,14.35,44.06,9.08c27.23,19.08,41.56-1.9,45.32-14.78
	c9.75,0.77,29.65-2.28,31.33-20.69c2.09-23.01-9.4-26.6-18.8-30.82c-12.53-30.61-34.67-19-43.23-13.93
	c-16.21-14.18-30.14-6.75-35.08-1.27C284.77,207.73,277.29,200.81,260.75,205.2z"/>
<path class="st5" d="M1123.75,136.2c-16.54,4.39-19.14,21.67-18.38,29.76c-7.66,4.71-20.88,18.2-12.53,34.41
	c10.44,20.26,25.48,15.83,33,14.78c16.92,28.71,36.55,14.35,44.06,9.08c27.23,19.08,41.56-1.9,45.32-14.78
	c9.75,0.77,29.65-2.28,31.33-20.69c2.09-23.01-9.4-26.6-18.8-30.82c-12.53-30.61-34.67-19-43.23-13.93
	c-16.21-14.18-30.14-6.75-35.08-1.27C1147.77,138.73,1140.29,131.81,1123.75,136.2z"/>
<path class="st5" d="M1002.25,1002.7c-16.54,4.39-19.14,21.67-18.38,29.76c-7.66,4.71-20.88,18.2-12.53,34.41
	c10.44,20.26,25.48,15.83,33,14.78c16.92,28.71,36.55,14.35,44.06,9.08c27.23,19.08,41.56-1.9,45.32-14.78
	c9.75,0.77,29.65-2.28,31.33-20.69c2.09-23.01-9.4-26.6-18.8-30.82c-12.53-30.61-34.67-19-43.23-13.93
	c-16.21-14.18-30.14-6.75-35.08-1.27C1026.27,1005.23,1018.79,998.31,1002.25,1002.7z"/>
<path class="st1" d="M176.13,2427.22c-28.55,7.58-33.04,37.4-31.72,51.37c-13.22,8.14-36.04,31.4-21.63,59.39
	c18.02,34.98,43.97,27.32,56.95,25.5c29.2,49.55,63.08,24.77,76.05,15.67c47,32.94,71.73-3.28,78.22-25.5
	c16.82,1.34,51.18-3.93,54.07-35.7c3.6-39.71-16.22-45.9-32.44-53.19c-21.63-52.83-59.83-32.79-74.61-24.05
	c-27.97-24.48-52.02-11.66-60.55-2.19C217.58,2431.59,204.68,2419.64,176.13,2427.22z"/>
<path class="st1" d="M446.13,2848.22c-28.55,7.58-33.04,37.4-31.72,51.37c-13.22,8.14-36.04,31.4-21.63,59.39
	c18.02,34.98,43.97,27.32,56.95,25.5c29.2,49.55,63.08,24.77,76.05,15.67c47,32.94,71.73-3.28,78.22-25.5
	c16.82,1.34,51.18-3.93,54.07-35.7c3.6-39.71-16.22-45.9-32.44-53.19c-21.63-52.83-59.83-32.79-74.61-24.05
	c-27.97-24.48-52.02-11.66-60.55-2.19C487.58,2852.59,474.68,2840.64,446.13,2848.22z"/>
<path class="st1" d="M179.13,3483.22c-28.55,7.58-33.04,37.4-31.72,51.37c-13.22,8.14-36.04,31.4-21.63,59.39
	c18.02,34.98,43.97,27.32,56.95,25.5c29.2,49.55,63.08,24.77,76.05,15.67c47,32.94,71.73-3.28,78.22-25.5
	c16.82,1.34,51.18-3.93,54.07-35.7c3.6-39.71-16.22-45.9-32.44-53.19c-21.63-52.83-59.83-32.79-74.61-24.05
	c-27.97-24.48-52.02-11.66-60.55-2.19C220.58,3487.59,207.68,3475.64,179.13,3483.22z"/>
<path class="st2" d="M955.91,3795.14c-21.79,5.78-25.22,28.55-24.21,39.21c-10.09,6.21-27.51,23.97-16.51,45.32
	c13.75,26.69,33.56,20.85,43.46,19.46c22.28,37.81,48.14,18.91,58.04,11.96c35.87,25.14,54.74-2.5,59.7-19.46
	c12.84,1.02,39.06-3,41.26-27.25c2.75-30.31-12.38-35.03-24.76-40.6c-16.51-40.32-45.67-25.02-56.94-18.35
	c-21.35-18.69-39.7-8.9-46.22-1.67C987.54,3798.48,977.69,3789.36,955.91,3795.14z"/>
<path class="st2" d="M430.91,3996.14c-21.79,5.78-25.22,28.55-24.21,39.21c-10.09,6.21-27.51,23.97-16.51,45.32
	c13.75,26.69,33.56,20.85,43.46,19.46c22.28,37.81,48.14,18.91,58.04,11.96c35.87,25.14,54.74-2.5,59.7-19.46
	c12.84,1.02,39.06-3,41.26-27.25c2.75-30.31-12.38-35.03-24.76-40.6c-16.51-40.32-45.67-25.02-56.94-18.35
	c-21.35-18.69-39.7-8.9-46.22-1.67C462.54,3999.48,452.69,3990.36,430.91,3996.14z"/>
<path class="st3" d="M217.6,4408.71c-16.71,4.44-19.34,21.89-18.57,30.07c-7.74,4.76-21.1,18.38-12.66,34.76
	c10.55,20.47,25.74,15.99,33.33,14.93c17.09,29,36.92,14.5,44.52,9.17c27.51,19.28,41.98-1.92,45.78-14.93
	c9.85,0.78,29.96-2.3,31.65-20.9c2.11-23.24-9.49-26.87-18.99-31.13c-12.66-30.92-35.02-19.19-43.67-14.07
	c-16.37-14.33-30.45-6.82-35.44-1.28C241.86,4411.27,234.31,4404.28,217.6,4408.71z"/>
<path class="st4" d="M1063.5,4343.22c-10.95,2.91-12.68,14.35-12.17,19.71c-5.07,3.12-13.83,12.05-8.3,22.79
	c6.92,13.42,16.87,10.48,21.85,9.79c11.2,19.01,24.2,9.51,29.18,6.01c18.03,12.64,27.52-1.26,30.01-9.79
	c6.45,0.51,19.64-1.51,20.75-13.7c1.38-15.24-6.22-17.61-12.45-20.41c-8.3-20.27-22.96-12.58-28.63-9.23
	c-10.73-9.39-19.96-4.47-23.23-0.84C1079.41,4344.9,1074.45,4340.32,1063.5,4343.22z"/>
<path class="st2" d="M1119.91,3230.14c-21.79,5.78-25.22,28.55-24.21,39.21c-10.09,6.21-27.51,23.97-16.51,45.32
	c13.75,26.69,33.56,20.85,43.46,19.46c22.28,37.81,48.14,18.91,58.04,11.96c35.87,25.14,54.74-2.5,59.7-19.46
	c12.84,1.02,39.06-3,41.26-27.25c2.75-30.31-12.38-35.03-24.76-40.6c-16.51-40.32-45.67-25.02-56.94-18.35
	c-21.35-18.69-39.7-8.9-46.22-1.67C1151.54,3233.48,1141.69,3224.36,1119.91,3230.14z"/>
<path class="st5" d="M289.75,2512.2c-16.54,4.39-19.14,21.67-18.38,29.76c-7.66,4.71-20.88,18.2-12.53,34.41
	c10.44,20.26,25.48,15.83,33,14.78c16.92,28.71,36.55,14.35,44.06,9.08c27.23,19.08,41.56-1.9,45.32-14.78
	c9.75,0.77,29.65-2.28,31.33-20.69c2.09-23.01-9.4-26.6-18.8-30.82c-12.53-30.61-34.67-19-43.23-13.93
	c-16.21-14.19-30.14-6.75-35.08-1.27C313.77,2514.73,306.29,2507.81,289.75,2512.2z"/>
<path class="st5" d="M1152.75,2443.2c-16.54,4.39-19.14,21.67-18.38,29.76c-7.66,4.71-20.88,18.2-12.53,34.41
	c10.44,20.26,25.48,15.83,33,14.78c16.92,28.71,36.55,14.35,44.06,9.08c27.23,19.08,41.56-1.9,45.32-14.78
	c9.75,0.77,29.65-2.28,31.33-20.69c2.09-23.01-9.4-26.6-18.8-30.82c-12.53-30.61-34.67-19-43.23-13.93
	c-16.21-14.19-30.14-6.75-35.08-1.27C1176.77,2445.73,1169.29,2438.81,1152.75,2443.2z"/>
<path class="st5" d="M1031.25,3309.7c-16.54,4.39-19.14,21.67-18.38,29.76c-7.66,4.71-20.88,18.2-12.53,34.41
	c10.44,20.26,25.48,15.83,33,14.78c16.92,28.71,36.55,14.35,44.06,9.08c27.23,19.08,41.56-1.9,45.32-14.78
	c9.75,0.77,29.65-2.28,31.33-20.69c2.09-23.01-9.4-26.6-18.8-30.82c-12.53-30.61-34.67-19-43.23-13.93
	c-16.21-14.19-30.14-6.75-35.08-1.27C1055.27,3312.23,1047.79,3305.31,1031.25,3309.7z"/>
<path class="st1" d="M178.13,4750.22c-28.55,7.58-33.04,37.4-31.72,51.37c-13.22,8.14-36.04,31.4-21.63,59.38
	c18.02,34.98,43.97,27.32,56.95,25.5c29.2,49.55,63.08,24.77,76.05,15.67c47,32.94,71.73-3.28,78.22-25.5
	c16.82,1.34,51.18-3.93,54.07-35.7c3.6-39.71-16.22-45.9-32.44-53.19c-21.63-52.83-59.83-32.79-74.61-24.05
	c-27.97-24.48-52.02-11.66-60.55-2.19C219.58,4754.59,206.68,4742.64,178.13,4750.22z"/>
<path class="st1" d="M448.13,5171.22c-28.55,7.58-33.04,37.4-31.72,51.37c-13.22,8.14-36.04,31.4-21.63,59.38
	c18.02,34.98,43.97,27.32,56.95,25.5c29.2,49.55,63.08,24.77,76.05,15.67c47,32.94,71.73-3.28,78.22-25.5
	c16.82,1.34,51.18-3.93,54.07-35.7c3.6-39.71-16.22-45.9-32.44-53.19c-21.63-52.83-59.83-32.79-74.61-24.05
	c-27.97-24.48-52.02-11.66-60.55-2.19C489.58,5175.59,476.68,5163.64,448.13,5171.22z"/>
<path class="st1" d="M181.13,5806.22c-28.55,7.58-33.04,37.4-31.72,51.37c-13.22,8.14-36.04,31.4-21.63,59.38
	c18.02,34.98,43.97,27.32,56.95,25.5c29.2,49.55,63.08,24.77,76.05,15.67c47,32.94,71.73-3.28,78.22-25.5
	c16.82,1.34,51.18-3.93,54.07-35.7c3.6-39.71-16.22-45.9-32.44-53.19c-21.63-52.83-59.83-32.79-74.61-24.05
	c-27.97-24.48-52.02-11.66-60.55-2.19C222.58,5810.59,209.68,5798.64,181.13,5806.22z"/>
<path class="st2" d="M955.91,6163.15c-21.79,5.78-25.22,28.55-24.21,39.21c-10.09,6.21-27.51,23.97-16.51,45.32
	c13.75,26.69,33.56,20.85,43.46,19.46c22.28,37.81,48.14,18.91,58.04,11.96c35.87,25.14,54.74-2.5,59.7-19.46
	c12.84,1.02,39.06-3,41.26-27.25c2.75-30.31-12.38-35.03-24.76-40.6c-16.51-40.32-45.67-25.02-56.94-18.35
	c-21.35-18.69-39.7-8.9-46.22-1.67C987.54,6166.48,977.69,6157.36,955.91,6163.15z"/>
<path class="st2" d="M430.91,6364.15c-21.79,5.78-25.22,28.55-24.21,39.21c-10.09,6.21-27.51,23.97-16.51,45.32
	c13.75,26.69,33.56,20.85,43.46,19.46c22.28,37.81,48.14,18.91,58.04,11.96c35.87,25.14,54.74-2.5,59.7-19.46
	c12.84,1.02,39.06-3,41.26-27.25c2.75-30.31-12.38-35.03-24.76-40.6c-16.51-40.32-45.67-25.02-56.94-18.35
	c-21.35-18.69-39.7-8.9-46.22-1.67C462.54,6367.48,452.69,6358.36,430.91,6364.15z"/>
<path class="st3" d="M217.6,6776.71c-16.71,4.44-19.34,21.89-18.57,30.07c-7.74,4.76-21.1,18.38-12.66,34.76
	c10.55,20.47,25.74,15.99,33.33,14.93c17.09,29,36.92,14.5,44.52,9.17c27.51,19.28,41.98-1.92,45.78-14.93
	c9.85,0.78,29.96-2.3,31.65-20.9c2.11-23.24-9.49-26.87-18.99-31.13c-12.66-30.92-35.02-19.19-43.67-14.07
	c-16.37-14.33-30.45-6.82-35.44-1.28C241.86,6779.27,234.31,6772.28,217.6,6776.71z"/>
<path class="st4" d="M1063.5,6711.22c-10.95,2.91-12.68,14.35-12.17,19.71c-5.07,3.12-13.83,12.05-8.3,22.79
	c6.92,13.42,16.87,10.48,21.85,9.79c11.2,19.01,24.2,9.51,29.18,6.01c18.03,12.64,27.52-1.26,30.01-9.79
	c6.45,0.51,19.64-1.51,20.75-13.7c1.38-15.24-6.22-17.61-12.45-20.41c-8.3-20.27-22.96-12.58-28.63-9.23
	c-10.73-9.39-19.96-4.47-23.23-0.84C1079.41,6712.9,1074.45,6708.32,1063.5,6711.22z"/>
<path class="st2" d="M1121.91,5553.15c-21.79,5.78-25.22,28.55-24.21,39.21c-10.09,6.21-27.51,23.97-16.51,45.32
	c13.75,26.69,33.56,20.85,43.46,19.46c22.28,37.81,48.14,18.91,58.04,11.96c35.87,25.14,54.74-2.5,59.7-19.46
	c12.84,1.02,39.06-3,41.26-27.25c2.75-30.31-12.38-35.03-24.76-40.6c-16.51-40.32-45.67-25.02-56.94-18.35
	c-21.35-18.69-39.7-8.9-46.22-1.67C1153.54,5556.48,1143.69,5547.36,1121.91,5553.15z"/>
<path class="st5" d="M291.75,4835.2c-16.54,4.39-19.14,21.67-18.38,29.76c-7.66,4.71-20.88,18.2-12.53,34.41
	c10.44,20.26,25.48,15.83,33,14.78c16.92,28.71,36.55,14.35,44.06,9.08c27.23,19.08,41.56-1.9,45.32-14.78
	c9.75,0.77,29.65-2.28,31.33-20.69c2.09-23.01-9.4-26.6-18.8-30.82c-12.53-30.61-34.67-19-43.23-13.93
	c-16.21-14.18-30.14-6.75-35.08-1.27C315.77,4837.73,308.29,4830.81,291.75,4835.2z"/>
<path class="st5" d="M1154.75,4766.2c-16.54,4.39-19.14,21.67-18.38,29.76c-7.66,4.71-20.88,18.2-12.53,34.41
	c10.44,20.26,25.48,15.83,33,14.78c16.92,28.71,36.55,14.35,44.06,9.08c27.23,19.08,41.56-1.9,45.32-14.78
	c9.75,0.77,29.65-2.28,31.33-20.69c2.09-23.01-9.4-26.6-18.8-30.82c-12.53-30.61-34.67-19-43.23-13.93
	c-16.21-14.18-30.14-6.75-35.08-1.27C1178.77,4768.73,1171.29,4761.81,1154.75,4766.2z"/>
<path class="st5" d="M1033.25,5632.7c-16.54,4.39-19.14,21.67-18.38,29.76c-7.66,4.71-20.88,18.2-12.53,34.41
	c10.44,20.26,25.48,15.83,33,14.78c16.92,28.71,36.55,14.35,44.06,9.08c27.23,19.08,41.56-1.9,45.32-14.78
	c9.75,0.77,29.65-2.28,31.33-20.69c2.09-23.01-9.4-26.6-18.8-30.82c-12.53-30.61-34.67-19-43.23-13.93
	c-16.21-14.18-30.14-6.75-35.08-1.27C1057.27,5635.23,1049.79,5628.31,1033.25,5632.7z"/>
<path class="st1" d="M178.13,7154.22c-28.55,7.58-33.04,37.4-31.72,51.37c-13.22,8.14-36.04,31.4-21.63,59.38
	c18.02,34.98,43.97,27.32,56.95,25.5c29.2,49.55,63.08,24.77,76.05,15.67c47,32.94,71.73-3.28,78.22-25.5
	c16.82,1.34,51.18-3.93,54.07-35.7c3.6-39.71-16.22-45.9-32.44-53.19c-21.63-52.83-59.83-32.79-74.61-24.05
	c-27.97-24.48-52.02-11.66-60.55-2.19C219.58,7158.59,206.68,7146.64,178.13,7154.22z"/>
<path class="st1" d="M448.13,7575.22c-28.55,7.58-33.04,37.4-31.72,51.37c-13.22,8.14-36.04,31.4-21.63,59.38
	c18.02,34.98,43.97,27.32,56.95,25.5c29.2,49.55,63.08,24.77,76.05,15.67c47,32.94,71.73-3.28,78.22-25.5
	c16.82,1.34,51.18-3.93,54.07-35.7c3.6-39.71-16.22-45.9-32.44-53.19c-21.63-52.83-59.83-32.79-74.61-24.05
	c-27.97-24.48-52.02-11.66-60.55-2.19C489.58,7579.59,476.68,7567.64,448.13,7575.22z"/>
<path class="st1" d="M181.13,8210.22c-28.55,7.58-33.04,37.4-31.72,51.37c-13.22,8.14-36.04,31.4-21.63,59.38
	c18.02,34.98,43.97,27.33,56.95,25.5c29.2,49.55,63.08,24.77,76.05,15.67c47,32.94,71.73-3.28,78.22-25.5
	c16.82,1.34,51.18-3.93,54.07-35.7c3.6-39.71-16.22-45.9-32.44-53.19c-21.63-52.83-59.83-32.79-74.61-24.04
	c-27.97-24.48-52.02-11.66-60.55-2.19C222.58,8214.59,209.68,8202.64,181.13,8210.22z"/>
<path class="st2" d="M955.91,8567.14c-21.79,5.78-25.22,28.55-24.21,39.21c-10.09,6.21-27.51,23.97-16.51,45.32
	c13.75,26.69,33.56,20.85,43.46,19.46c22.28,37.81,48.14,18.91,58.04,11.96c35.87,25.14,54.74-2.5,59.7-19.46
	c12.84,1.02,39.06-3,41.26-27.25c2.75-30.31-12.38-35.03-24.76-40.6c-16.51-40.32-45.67-25.02-56.94-18.35
	c-21.35-18.68-39.7-8.9-46.22-1.67C987.54,8570.48,977.69,8561.36,955.91,8567.14z"/>
<path class="st2" d="M430.91,8768.14c-21.79,5.78-25.22,28.55-24.21,39.21c-10.09,6.21-27.51,23.97-16.51,45.32
	c13.75,26.69,33.56,20.85,43.46,19.46c22.28,37.81,48.14,18.91,58.04,11.96c35.87,25.14,54.74-2.5,59.7-19.46
	c12.84,1.02,39.06-3,41.26-27.25c2.75-30.31-12.38-35.03-24.76-40.6c-16.51-40.32-45.67-25.02-56.94-18.35
	c-21.35-18.68-39.7-8.9-46.22-1.67C462.54,8771.48,452.69,8762.36,430.91,8768.14z"/>
<path class="st3" d="M217.6,9180.71c-16.71,4.44-19.34,21.89-18.57,30.07c-7.74,4.76-21.1,18.38-12.66,34.76
	c10.55,20.47,25.74,15.99,33.33,14.93c17.09,29,36.92,14.5,44.52,9.17c27.51,19.28,41.98-1.92,45.78-14.93
	c9.85,0.78,29.96-2.3,31.65-20.9c2.11-23.24-9.49-26.87-18.99-31.13c-12.66-30.92-35.02-19.19-43.67-14.07
	c-16.37-14.33-30.45-6.82-35.44-1.28C241.86,9183.27,234.31,9176.28,217.6,9180.71z"/>
<path class="st4" d="M1063.5,9115.22c-10.95,2.91-12.68,14.35-12.17,19.71c-5.07,3.12-13.83,12.05-8.3,22.79
	c6.92,13.42,16.87,10.49,21.85,9.79c11.2,19.01,24.2,9.51,29.18,6.01c18.03,12.64,27.52-1.26,30.01-9.79
	c6.45,0.51,19.64-1.51,20.75-13.7c1.38-15.24-6.22-17.61-12.45-20.41c-8.3-20.27-22.96-12.58-28.63-9.23
	c-10.73-9.39-19.96-4.47-23.23-0.84C1079.41,9116.9,1074.45,9112.32,1063.5,9115.22z"/>
<path class="st2" d="M1121.91,7957.15c-21.79,5.78-25.22,28.55-24.21,39.21c-10.09,6.21-27.51,23.97-16.51,45.32
	c13.75,26.69,33.56,20.85,43.46,19.46c22.28,37.81,48.14,18.91,58.04,11.96c35.87,25.14,54.74-2.5,59.7-19.46
	c12.84,1.02,39.06-3,41.26-27.25c2.75-30.31-12.38-35.03-24.76-40.6c-16.51-40.32-45.67-25.02-56.94-18.35
	c-21.35-18.69-39.7-8.9-46.22-1.67C1153.54,7960.48,1143.69,7951.36,1121.91,7957.15z"/>
<path class="st5" d="M291.75,7239.2c-16.54,4.39-19.14,21.67-18.38,29.76c-7.66,4.71-20.88,18.2-12.53,34.41
	c10.44,20.26,25.48,15.83,33,14.78c16.92,28.71,36.55,14.35,44.06,9.08c27.23,19.08,41.56-1.9,45.32-14.78
	c9.75,0.77,29.65-2.28,31.33-20.69c2.09-23.01-9.4-26.6-18.8-30.82c-12.53-30.61-34.67-19-43.23-13.93
	c-16.21-14.18-30.14-6.75-35.08-1.27C315.77,7241.73,308.29,7234.81,291.75,7239.2z"/>
<path class="st5" d="M1154.75,7170.2c-16.54,4.39-19.14,21.67-18.38,29.76c-7.66,4.71-20.88,18.2-12.53,34.41
	c10.44,20.26,25.48,15.83,33,14.78c16.92,28.71,36.55,14.35,44.06,9.08c27.23,19.08,41.56-1.9,45.32-14.78
	c9.75,0.77,29.65-2.28,31.33-20.69c2.09-23.01-9.4-26.6-18.8-30.82c-12.53-30.61-34.67-19-43.23-13.93
	c-16.21-14.18-30.14-6.75-35.08-1.27C1178.77,7172.73,1171.29,7165.81,1154.75,7170.2z"/>
<path class="st5" d="M1033.25,8036.7c-16.54,4.39-19.14,21.67-18.38,29.76c-7.66,4.71-20.88,18.2-12.53,34.41
	c10.44,20.26,25.48,15.83,33,14.78c16.92,28.71,36.55,14.35,44.06,9.08c27.23,19.08,41.56-1.9,45.32-14.78
	c9.75,0.77,29.65-2.28,31.33-20.69c2.09-23.01-9.4-26.6-18.8-30.82c-12.53-30.61-34.67-19-43.23-13.93
	c-16.21-14.18-30.14-6.75-35.08-1.27C1057.27,8039.23,1049.79,8032.31,1033.25,8036.7z"/>
</svg>
