<?xml version="1.0" encoding="utf-8"?>
<!-- Generator: Adobe Illustrator 25.0.1, SVG Export Plug-In . SVG Version: 6.00 Build 0)  -->
<svg version="1.1" id="Layer_1" xmlns="http://www.w3.org/2000/svg" xmlns:xlink="http://www.w3.org/1999/xlink" x="0px" y="0px"
	 viewBox="0 0 1920 1080" style="enable-background:new 0 0 1920 1080;" xml:space="preserve">
<style type="text/css">
	.st0{fill:#D6EEFF;}
	.st1{fill:#FFFFFF;stroke:#D6EEFF;stroke-width:2.1699;}
	.st2{fill:#FFFFFF;stroke:#D6EEFF;}
	.st3{fill:#FFFFFF;stroke:#D6EEFF;stroke-width:1.5187;}
	.st4{fill:#FFFFFF;stroke:#D6EEFF;stroke-width:2.1311;}
	.st5{fill:#FFFFFF;stroke:#D6EEFF;stroke-width:1.5032;}
	.st6{fill:#FFFFFF;stroke:#D6EEFF;stroke-width:1.4818;}
</style>
<g>
	<rect x="-141.59" y="-204.65" class="st0" width="2158.73" height="1492.76"/>
	<path d="M2016.58-203.96v1491.38h-2157.6V-203.96H2016.58 M2017.7-205.34H-142.15V1288.8H2017.7V-205.34L2017.7-205.34z"/>
</g>
<path class="st1" d="M117.09,40.51c-29.56,7.9-34.21,38.98-32.84,53.54c-13.69,8.48-37.32,32.73-22.39,61.89
	c18.66,36.45,45.53,28.48,58.97,26.58c30.23,51.64,65.32,25.82,78.75,16.33c48.67,34.33,74.27-3.42,80.99-26.58
	c17.42,1.39,53-4.1,55.99-37.21c3.73-41.39-16.8-47.84-33.59-55.44c-22.4-55.06-61.96-34.17-77.26-25.06
	c-28.96-25.52-53.87-12.15-62.7-2.28C160.02,45.07,146.65,32.61,117.09,40.51z"/>
<path class="st2" d="M250.74,148.14c-13.62,3.64-15.77,17.97-15.14,24.67c-6.31,3.91-17.2,15.08-10.32,28.52
	c8.6,16.8,20.98,13.12,27.18,12.25c13.93,23.8,30.1,11.9,36.29,7.52c22.43,15.82,34.23-1.57,37.32-12.25
	c8.03,0.64,24.43-1.89,25.8-17.15c1.72-19.07-7.74-22.05-15.48-25.55c-10.32-25.37-28.55-15.75-35.61-11.55
	c-13.35-11.76-24.83-5.6-28.9-1.05C270.52,150.24,264.36,144.5,250.74,148.14z"/>
<path class="st2" d="M364.74,442.14c-13.62,3.64-15.77,17.97-15.14,24.67c-6.31,3.91-17.2,15.08-10.32,28.52
	c8.6,16.8,20.98,13.12,27.18,12.25c13.93,23.8,30.1,11.9,36.29,7.52c22.43,15.82,34.23-1.57,37.32-12.25
	c8.03,0.64,24.43-1.89,25.8-17.15c1.72-19.07-7.74-22.05-15.48-25.55c-10.32-25.37-28.55-15.75-35.61-11.55
	c-13.35-11.76-24.83-5.6-28.9-1.05C384.52,444.24,378.36,438.5,364.74,442.14z"/>
<path class="st2" d="M1566.74,923.14c-13.62,3.64-15.77,17.97-15.14,24.67c-6.31,3.91-17.2,15.08-10.32,28.52
	c8.6,16.8,20.98,13.12,27.18,12.25c13.93,23.8,30.1,11.9,36.29,7.52c22.43,15.82,34.23-1.57,37.32-12.25
	c8.03,0.64,24.42-1.89,25.8-17.15c1.72-19.07-7.74-22.05-15.48-25.55c-10.32-25.37-28.55-15.75-35.61-11.55
	c-13.35-11.76-24.83-5.6-28.9-1.05C1586.52,925.24,1580.36,919.5,1566.74,923.14z"/>
<path class="st2" d="M1437.74,468.14c-13.62,3.64-15.77,17.97-15.14,24.67c-6.31,3.91-17.2,15.08-10.32,28.52
	c8.6,16.8,20.98,13.12,27.18,12.25c13.93,23.8,30.1,11.9,36.29,7.52c22.43,15.82,34.23-1.57,37.32-12.25
	c8.03,0.64,24.42-1.89,25.8-17.15c1.72-19.07-7.74-22.05-15.48-25.55c-10.32-25.37-28.55-15.75-35.61-11.55
	c-13.35-11.76-24.83-5.6-28.9-1.05C1457.52,470.24,1451.36,464.5,1437.74,468.14z"/>
<path class="st3" d="M820.09,137.75c-20.69,5.53-23.95,27.28-22.99,37.47c-9.58,5.94-26.12,22.91-15.67,43.32
	c13.06,25.51,31.87,19.93,41.27,18.6c21.16,36.14,45.72,18.07,55.12,11.43c34.06,24.02,51.98-2.39,56.69-18.6
	c12.19,0.97,37.1-2.87,39.18-26.04c2.61-28.97-11.76-33.49-23.51-38.8c-15.67-38.54-43.36-23.92-54.08-17.54
	c-20.27-17.86-37.7-8.5-43.89-1.59C850.13,140.94,840.77,132.22,820.09,137.75z"/>
<path class="st4" d="M324.02,811.46c-29.03,7.76-33.6,38.29-32.26,52.58c-13.44,8.33-36.66,32.15-21.99,60.79
	c18.33,35.8,44.72,27.97,57.92,26.1c29.69,50.72,64.15,25.36,77.35,16.04c47.8,33.71,72.95-3.36,79.54-26.1
	c17.11,1.37,52.05-4.03,54.99-36.55c3.67-40.65-16.5-46.99-32.99-54.45c-22-54.07-60.85-33.56-75.88-24.61
	c-28.45-25.06-52.91-11.93-61.58-2.24C366.18,815.94,353.05,803.71,324.02,811.46z"/>
<path class="st4" d="M1278.02,357.46c-29.03,7.76-33.6,38.29-32.26,52.58c-13.44,8.33-36.66,32.15-21.99,60.79
	c18.33,35.8,44.72,27.97,57.92,26.1c29.69,50.72,64.15,25.36,77.35,16.04c47.8,33.71,72.95-3.36,79.54-26.1
	c17.11,1.37,52.05-4.03,54.99-36.55c3.67-40.65-16.49-46.99-32.99-54.45c-22-54.07-60.85-33.56-75.88-24.61
	c-28.45-25.06-52.91-11.93-61.58-2.24C1320.18,361.94,1307.05,349.71,1278.02,357.46z"/>
<path class="st5" d="M1684.66,54.73c-20.48,5.47-23.7,27.01-22.75,37.09c-9.48,5.87-25.86,22.67-15.51,42.88
	c12.93,25.25,31.54,19.73,40.85,18.41c20.94,35.77,45.25,17.89,54.56,11.31c33.72,23.78,51.45-2.37,56.11-18.41
	c12.07,0.96,36.72-2.84,38.78-25.78c2.59-28.67-11.64-33.14-23.27-38.4c-15.51-38.14-42.92-23.67-53.52-17.36
	c-20.06-17.68-37.32-8.42-43.44-1.58C1714.39,57.89,1705.14,49.26,1684.66,54.73z"/>
<path class="st6" d="M989.06,667.71c-20.19,5.39-23.36,26.62-22.43,36.56c-9.35,5.79-25.49,22.35-15.29,42.26
	c12.74,24.89,31.09,19.45,40.27,18.15c20.64,35.26,44.6,17.63,53.78,11.15c33.24,23.44,50.72-2.33,55.31-18.15
	c11.89,0.95,36.19-2.8,38.23-25.41c2.55-28.26-11.47-32.67-22.94-37.86c-15.29-37.6-42.31-23.34-52.76-17.11
	c-19.78-17.42-36.79-8.3-42.82-1.56C1018.37,670.82,1009.25,662.31,989.06,667.71z"/>
<path class="st6" d="M1831.06,549.71c-20.19,5.39-23.36,26.62-22.43,36.56c-9.35,5.79-25.49,22.35-15.29,42.26
	c12.74,24.89,31.09,19.45,40.27,18.15c20.64,35.26,44.6,17.63,53.78,11.15c33.24,23.44,50.72-2.33,55.31-18.15
	c11.89,0.95,36.19-2.8,38.23-25.41c2.55-28.26-11.47-32.67-22.94-37.86c-15.29-37.6-42.31-23.34-52.76-17.11
	c-19.78-17.42-36.79-8.3-42.82-1.56C1860.37,552.82,1851.25,544.31,1831.06,549.71z"/>
<path class="st6" d="M-12.94,509.71c-20.19,5.39-23.36,26.62-22.43,36.56c-9.35,5.79-25.49,22.35-15.29,42.26
	c12.74,24.89,31.09,19.45,40.27,18.15c20.64,35.26,44.6,17.63,53.78,11.15c33.24,23.44,50.72-2.33,55.31-18.15
	c11.89,0.95,36.19-2.8,38.23-25.41c2.55-28.26-11.47-32.67-22.94-37.86c-15.29-37.6-42.31-23.34-52.76-17.11
	c-19.78-17.42-36.79-8.3-42.82-1.56C16.37,512.82,7.25,504.31-12.94,509.71z"/>
<path class="st3" d="M427.45,479.9c-20.69,5.53-23.95,27.28-22.99,37.47c-9.58,5.94-26.12,22.91-15.67,43.32
	c13.06,25.51,31.87,19.93,41.27,18.6c21.16,36.14,45.72,18.07,55.12,11.43c34.06,24.02,51.98-2.39,56.69-18.6
	c12.19,0.97,37.1-2.87,39.18-26.04c2.61-28.97-11.76-33.49-23.51-38.8c-15.67-38.54-43.36-23.92-54.08-17.54
	c-20.27-17.86-37.7-8.5-43.89-1.59C457.49,483.09,448.14,474.38,427.45,479.9z"/>
</svg>
