<?xml version="1.0" encoding="utf-8"?>
<!-- Generator: Adobe Illustrator 26.0.2, SVG Export Plug-In . SVG Version: 6.00 Build 0)  -->
<svg version="1.1" id="Layer_1" xmlns="http://www.w3.org/2000/svg" xmlns:xlink="http://www.w3.org/1999/xlink" x="0px" y="0px"
	 viewBox="0 0 211 205" style="enable-background:new 0 0 211 205;" xml:space="preserve">
<style type="text/css">
	.st0{fill:#AFDDFF;stroke:#FFFFFF;stroke-width:5;}
</style>
<path class="st0" d="M70.6,20.4c6.9-23.8,41-23.3,47.3,0.9c3.9,15.1,18.8,24.6,34.1,21.7l30.2-5.7c23.6-4.5,36.1,26.8,15.9,39.8
	l-2.5,1.6c-9.6,6.2-13.3,18.5-8.6,29c0.5,1.1,1.1,2.2,1.7,3.2l2.7,4.2c16.2,25.1-4.1,57.7-33.8,54.3l-10.8-1.3
	c-12.7-1.5-24.7,6.2-28.7,18.3c-6.8,20.6-36.1,20-42-0.9l-1.6-5.4c-4.6-16.2-22.2-24.9-37.9-18.9c-13,4.9-24.5-1.1-30.1-10.6
	c-5.6-9.5-5.2-22.3,5.6-30.9l4.2-3.4c11.2-9,12.3-25.6,2.4-35.9C9,70.1,13.2,53,26.8,48.5l24.8-8.2C60.8,37.2,67.9,29.8,70.6,20.4z"
	/>
</svg>
