<svg xmlns="http://www.w3.org/2000/svg" viewBox="0 0 140.05 245.08"><defs><style>.cls-1{fill:#b3b3b3;}.cls-2{fill:#29abe2;}</style></defs><g id="Layer_2" data-name="Layer 2"><g id="Layer_1-2" data-name="Layer 1"><rect class="cls-1" width="140.05" height="245.08"/><rect class="cls-2" x="21.37" y="24.86" width="12.42" height="29.36"/><rect class="cls-2" x="21.37" y="69.45" width="12.42" height="29.36"/><rect class="cls-2" x="47.91" y="69.45" width="12.42" height="29.36"/><rect class="cls-2" x="47.91" y="114.05" width="12.42" height="29.36"/><rect class="cls-2" x="47.91" y="158.64" width="12.42" height="29.36"/><rect class="cls-2" x="47.91" y="203.24" width="12.42" height="29.36"/><rect class="cls-2" x="74.45" y="69.45" width="12.42" height="29.36"/><rect class="cls-2" x="74.45" y="114.05" width="12.42" height="29.36"/><rect class="cls-2" x="74.45" y="158.64" width="12.42" height="29.36"/><rect class="cls-2" x="74.45" y="203.24" width="12.42" height="29.36"/><rect class="cls-2" x="100.99" y="69.45" width="12.42" height="29.36"/><rect class="cls-2" x="100.99" y="114.05" width="12.42" height="29.36"/><rect class="cls-2" x="100.99" y="158.64" width="12.42" height="29.36"/><rect class="cls-2" x="100.99" y="203.24" width="12.42" height="29.36"/><rect class="cls-2" x="21.37" y="114.05" width="12.42" height="29.36"/><rect class="cls-2" x="21.37" y="158.64" width="12.42" height="29.36"/><rect class="cls-2" x="21.37" y="203.24" width="12.42" height="29.36"/><rect class="cls-2" x="47.91" y="24.86" width="12.42" height="29.36"/><rect class="cls-2" x="74.45" y="24.86" width="12.42" height="29.36"/><rect class="cls-2" x="100.99" y="24.86" width="12.42" height="29.36"/></g></g></svg>