<?xml version="1.0" encoding="utf-8"?>
<!-- Generator: Adobe Illustrator 26.0.2, SVG Export Plug-In . SVG Version: 6.00 Build 0)  -->
<svg version="1.1" id="Layer_1" xmlns="http://www.w3.org/2000/svg" xmlns:xlink="http://www.w3.org/1999/xlink" x="0px" y="0px"
	 viewBox="0 0 224.4 203.99" style="enable-background:new 0 0 224.4 203.99;" xml:space="preserve">
<style type="text/css">
	.st0{fill:#896D49;}
	.st1{fill:#D9C1A7;}
	.st2{fill:#080000;}
	.st3{fill:none;stroke:#000000;stroke-miterlimit:10;}
</style>
<polygon class="st0" points="110.9,32.59 115.89,33.47 112.29,79.05 107.13,79.05 "/>
<polygon class="st0" points="11.67,27.74 20.04,79.05 41.17,105.38 43.6,100.62 25.1,76.04 16.29,26.64 "/>
<polygon class="st0" points="69.8,18.5 52.4,69.36 55.05,91.6 59.67,90.5 57.03,68.48 74.22,20.26 "/>
<polyline class="st0" points="77.94,140.72 70.68,168.01 75.52,196.84 79.49,195.3 75.08,168.01 83.08,144.11 "/>
<path class="st0" d="M91.17,103.98c0,0-23.58-29.78-42.29-12.39s-9.47,38.78,0,42.4s29.06,6.73,29.06,6.73l20.94,13.82l11.52-27.5
	L91.17,103.98z"/>
<ellipse class="st1" cx="63.02" cy="111.26" rx="13.61" ry="12.97"/>
<ellipse class="st0" cx="161.06" cy="71.24" rx="28.73" ry="27.29"/>
<ellipse class="st1" cx="159.38" cy="76.04" rx="17.54" ry="23.04"/>
<ellipse class="st0" cx="186.5" cy="168.01" rx="28.73" ry="27.29"/>
<ellipse transform="matrix(0.8286 -0.5599 0.5599 0.8286 -60.8563 131.0218)" class="st1" cx="183.52" cy="164.89" rx="17.54" ry="23.04"/>
<path class="st0" d="M162.85,166.05c0,0-2.78,2.17,24.64-8.73s26.75-38.64,26.75-38.64h10.16l-12.15-6.74l7.93-4.49h-9.58
	l6.61-12.88l-8.92,6.61l-1.98-5.61c-18.09-26.42-65.19-6.81-65.19-6.81l-17.38,48.1L162.85,166.05z"/>
<ellipse class="st1" cx="168.84" cy="118.7" rx="29.28" ry="27.11"/>
<ellipse transform="matrix(0.952 -0.306 0.306 0.952 -34.4541 45.3971)" class="st1" cx="127.58" cy="132.6" rx="34.81" ry="57.47"/>
<ellipse transform="matrix(0.952 -0.306 0.306 0.952 -25.7674 56.2927)" class="st2" cx="166.68" cy="110.34" rx="5.06" ry="3.3"/>
<ellipse transform="matrix(0.952 -0.306 0.306 0.952 -32.1323 59.2835)" class="st2" cx="173.04" cy="132.14" rx="5.06" ry="3.3"/>
<ellipse transform="matrix(0.9835 -0.1809 0.1809 0.9835 -19.8391 30.9716)" class="st2" cx="159.84" cy="124.23" rx="6.19" ry="8.86"/>
<path class="st3" d="M116.48,98.28c0,0-1.32,3.63,0,5.7c1.32,2.06,6.52,1.24,6.52,1.24"/>
<path class="st3" d="M138.69,159.63c0,0-4.13,0.74-4.46,4.38c-0.33,3.63,3.8,4.62,3.8,4.62"/>
<path class="st3" d="M134.23,164.01c0,0-15.94,0.41-24.28-9.66s-8.92-17.67-8.42-26.01s7.6-20.72,14.94-24.36"/>
<path class="st0" d="M58.94,84.39c0,0,23.85-35.29,29.8-33.75c5.94,1.54-20.54,36.45-20.54,36.45l-10.95,1.64L58.94,84.39z"/>
<ellipse class="st1" cx="13.82" cy="21.69" rx="13.82" ry="12.44"/>
<ellipse class="st1" cx="74.22" cy="12.44" rx="13.82" ry="12.44"/>
<ellipse class="st1" cx="76.88" cy="196.84" rx="7.94" ry="7.15"/>
<ellipse class="st1" cx="113.65" cy="28.84" rx="7.94" ry="7.15"/>
</svg>
