<?xml version="1.0" encoding="utf-8"?>
<!-- Generator: Adobe Illustrator 26.0.2, SVG Export Plug-In . SVG Version: 6.00 Build 0)  -->
<svg version="1.1" id="Layer_1" xmlns="http://www.w3.org/2000/svg" xmlns:xlink="http://www.w3.org/1999/xlink" x="0px" y="0px"
	 viewBox="0 0 215.98 215.12" style="enable-background:new 0 0 215.98 215.12;" xml:space="preserve">
<style type="text/css">
	.st0{fill:#B6CBD7;}
	.st1{fill:#FFD4F7;}
	.st2{fill:#FFFFFF;}
	.st3{fill:#C5505A;}
	.st4{fill:none;stroke:#000000;stroke-miterlimit:10;}
</style>
<path class="st0" d="M49.12,66.28c0,0,15.85-61.26,48.22-66.05S63.65,69.25,63.65,69.25L49.12,66.28z"/>
<path class="st0" d="M72.55,75.64c0,0,26.41-58.49,59.13-57.66c32.72,0.83-45.35,63.15-45.35,63.15L72.55,75.64z"/>
<ellipse transform="matrix(0.5 -0.866 0.866 0.5 -67.7646 97.4933)" class="st0" cx="50.55" cy="107.43" rx="45.78" ry="41.45"/>
<path class="st1" d="M54.4,62.7c0,0,15.73-46.35,32.04-46.3c16.31,0.06-22.28,47.57-22.28,47.57L54.4,62.7z"/>
<path class="st1" d="M78.83,71.57c0,0,29.73-43.94,39.97-39.64S84.58,77.58,84.58,77.58L78.83,71.57z"/>
<path class="st0" d="M86.45,128.16c0,0,17.83-0.78,29.39-7.05c11.56-6.28,27.74,0.9,32.7,7.05s8.92,18.71,8.92,18.71
	s13.54,0,20.81-10.57c7.27-10.57,19.16,18.5,19.16,18.5s31.38,37.32,12.55,37.98l-18.83-9.58c0,0,11.56,21.14,10.9,27.08
	c-0.66,5.94-12.55,6.94-17.5,0l-16.18-26.09c0,0,0.33-7.93-12.22,0c-12.55,7.93-32.7,0.99-32.7,0.99s-26.75,10.57-57.47-0.99
	c0,0-3.14,12.88-36.66,13.87c0,0-16.18,5.28-22.13,0.66c-5.94-4.62,0-9.25,0-9.25s-14.2-1.32-2.64-14.53c0,0,5.61-3.87,20.15-8.04
	c14.53-4.18,16.18-9.13,16.18-9.13l-2.34-6.5l23.14-17.94L86.45,128.16z"/>
<ellipse class="st0" cx="151.49" cy="119.82" rx="18.84" ry="18.13"/>
<circle class="st2" cx="31.6" cy="98.09" r="6.28"/>
<circle class="st2" cx="64.96" cy="106.35" r="6.28"/>
<circle cx="31.9" cy="99.65" r="2.7"/>
<circle cx="65.1" cy="108.35" r="2.7"/>
<ellipse transform="matrix(0.2361 -0.9717 0.9717 0.2361 -79.5822 127.1367)" class="st3" cx="41.07" cy="114.19" rx="5.01" ry="9.35"/>
<path class="st4" d="M39.89,119.05c0,0-5.07,14.45,14.09,9.27"/>
<path class="st4" d="M39.95,126.09c0,0-7.33,2.78-10.2-2.5"/>
<path class="st4" d="M38.01,132.4c0,0,4.4,8.48,10.79,1.21"/>
<line class="st4" x1="47.37" y1="121.5" x2="60.8" y2="120.51"/>
<line class="st4" x1="47.81" y1="123.59" x2="62.46" y2="124.25"/>
<line class="st4" x1="47.81" y1="125.21" x2="62.46" y2="128.44"/>
<line class="st4" x1="34.38" y1="118.42" x2="24.03" y2="111.92"/>
<line class="st4" x1="32.84" y1="119.96" x2="19.85" y2="116.11"/>
<line class="st4" x1="32.84" y1="122.05" x2="18.75" y2="121.5"/>
</svg>
