<svg id="Layer_1" data-name="Layer 1" xmlns="http://www.w3.org/2000/svg" viewBox="0 0 263.39 319.84"><defs><style>.cls-1{fill:#f5c85c;}.cls-1,.cls-3,.cls-4,.cls-6{stroke:#000;stroke-miterlimit:10;}.cls-1,.cls-4{stroke-width:0.5px;}.cls-2{fill:#935919;}.cls-3{fill:#fff;stroke-width:1.14px;}.cls-5{fill:#d09893;}.cls-6{fill:none;}</style></defs><path class="cls-1" d="M86.89,271.23l-2.84,26.09-4,6.93s-11.88-2.64-5,7.27,32,7.9,32,7.9,5.28-5.59,2-11.87l63.08-125.83,38-64.07s19.16-6.28,3-13.55c0,0,4.95-7.59-8.26-5.61,0,0-5-10.24-9.58,8.26l-25.43,17.83L156.38,117,175.2,83.3s13.21-19.82-9.24-3l-26.76,32h-4.29l3-11.23s16.52-3.63,6.94-12.22c0,0-1.32-12.22-12.55-5,0,0-6.28-7.27-9.25,9.91L75.77,157.32,40.33,218.07,17,271.55s-7.26,3.31-7.26,5.62c0,0-16.19.33-6.28,10.9l33,5.94s4.62-2.64.66-9.58l10.57-14.88L68.2,259.33Z"/><path class="cls-2" d="M84.2,162.74S95.11,150.51,105,151.83c0,0-5.61-6.28,5.78-7.1,0,0,4-20.64,24.77-12.88s14,27.25,1.32,37.15c0,0,20.15,26.1-9.58,33.2,0,0,4,9.74-5.2,11.56s-31-17.51-31-17.51L72,185.85l3.9-23.29Z"/><path class="cls-1" d="M59.94,185.35s.66-24.11,9.25-26.75S89,156.29,82.07,168.84c-8.26,8.92-7.93,16.51-7.93,16.51s15.19-3,23.78,2c0,0,5.28-21.72,12.88-23.91S127,156,125.33,170.16s-16.84,23.45-16.84,23.45,14.53,13.87,13.87,23.12-6.28,24.44-7.6,32.36-3.42,28.08-22,16.85c0,0-11.66,17.5-35.11,1.65,0,0-21.47,8.92-25.1-11.23,0,0,3.63-21.8,6.6-26.09S34.18,204.51,59.94,185.35Z"/><ellipse class="cls-2" cx="80.58" cy="218.19" rx="16.68" ry="18.61"/><circle class="cls-3" cx="55.81" cy="221.85" r="8.09"/><circle class="cls-3" cx="71.99" cy="223.84" r="8.09"/><path class="cls-2" d="M57.79,266.93s26.26-5.45,15.52-12.55-28.73-2.81-30.22-2.15-7.43,5.12,0,9.09A66.56,66.56,0,0,0,57.79,266.93Z"/><circle class="cls-4" cx="68.91" cy="224.93" r="3.08"/><circle class="cls-4" cx="58.34" cy="223.84" r="3.08"/><path class="cls-5" d="M92.14,264.62s11.89,2.14,13.21,0,3.8-19,3.8-19l-8.51-.66S98.08,261.15,92.14,264.62Z"/><path class="cls-5" d="M103.37,236.8s15.52-3.06,24.6-17.59c0,0,13.22-7.27,9.25,6.77s-22,18-22,18l-13.38-.66Z"/><path class="cls-6" d="M102.64,240s10.8,1.68,16.42-3.2"/><path class="cls-6" d="M153.41,58.53s-.66-31,35-58.13"/><path class="cls-6" d="M182.47,61.83s0-16.51,21.14-32.37"/><path class="cls-6" d="M219.68,80.49s7.93-46.24,43.6-54.83"/></svg>