<?xml version="1.0" encoding="utf-8"?>
<!-- Generator: Adobe Illustrator 25.4.1, SVG Export Plug-In . SVG Version: 6.00 Build 0)  -->
<svg version="1.1" id="Layer_1" xmlns="http://www.w3.org/2000/svg" xmlns:xlink="http://www.w3.org/1999/xlink" x="0px" y="0px"
	 viewBox="0 0 179 160" style="enable-background:new 0 0 179 160;" xml:space="preserve">
<style type="text/css">
	.st0{fill:#AF8D86;}
	.st1{fill:#AFDDFF;}
	.st2{fill:#FFFFFF;}
</style>
<ellipse class="st0" cx="79.5" cy="80" rx="79.5" ry="80"/>
<circle class="st1" cx="79" cy="80" r="64"/>
<path class="st0" d="M82,82l40.3-64.9l34.7,50.2L82,82z"/>
<g>
	<path class="st0" d="M28.8,100.7c0-2.9,1.2-5.2,3.5-6.9c2.3-1.7,5.6-2.5,9.6-2.5c4.1,0,7.3,0.8,9.6,2.4c2.3,1.6,3.5,3.9,3.5,6.8
		c0,2-0.3,3.6-0.9,4.8c-0.6,1.2-1.7,2.3-3.2,3.3v0.2c3.1,1.5,4.6,3.9,4.6,7.3s-1.2,6-3.5,7.8c-2.3,1.8-5.6,2.7-9.9,2.7
		s-7.6-0.9-10.1-2.6c-2.4-1.7-3.6-4.2-3.6-7.5c0-1.9,0.4-3.4,1.1-4.6c0.8-1.1,1.9-2.1,3.5-2.8v-0.2c-1.5-1-2.6-2.2-3.3-3.4
		C29.2,104.2,28.8,102.6,28.8,100.7z M42.1,118.8c1.5,0,2.3-0.8,2.3-2.3c0-0.7-0.2-1.3-0.7-1.8c-0.4-0.5-1.2-1.1-2.3-1.8
		c-1.2,1-1.8,1.9-1.8,2.9C39.6,117.8,40.4,118.8,42.1,118.8z M42.2,99.7c-1.5,0-2.3,0.7-2.3,2.1c0,0.7,0.2,1.3,0.6,1.8
		c0.4,0.4,1.1,1,2,1.6c1.4-1.1,2-2.1,2-3C44.6,100.5,43.8,99.7,42.2,99.7z M81.3,114.3c0,8.1-4.2,12.2-12.5,12.2
		c-3.9,0-7.6-0.6-10.9-1.7l0.9-9.4c5,1.3,7.9,1.9,8.9,1.9c1,0,1.7-0.2,2-0.6c0.3-0.4,0.5-1,0.5-1.9c0-1.6-0.5-2.4-1.6-2.4
		c-0.5,0-1,0.3-1.3,0.9l-9.4-1.1V92.1h21.7v8.7h-11v3.6c1-0.3,2.1-0.4,3.4-0.4C78.2,104,81.3,107.4,81.3,114.3z M117.3,91.8
		L106.3,126h-8.1l10.9-34.2H117.3z M94.8,104.1v-2.4c0-1.2-0.1-2-0.2-2.4c-0.1-0.3-0.3-0.7-0.4-1c-0.1-0.4-0.5-0.5-1.1-0.5
		c-0.6,0-1,0.1-1.2,0.3c-0.5,0.4-0.8,2.1-0.8,5.3v0.7c0,2.2,0.1,3.7,0.2,4.5c0.1,0.7,0.3,1.2,0.6,1.4c0.3,0.2,0.7,0.3,1.2,0.3
		c0.8,0,1.3-0.4,1.5-1.3C94.7,108.1,94.8,106.5,94.8,104.1z M92.9,91.3c3.8,0,6.3,1,7.6,3c1.3,2,2,5.1,2,9.5c0,4.3-0.7,7.4-2,9.3
		c-1.3,1.9-3.8,2.9-7.6,2.9c-3.7,0-6.3-1-7.6-2.9c-1.3-2-2-5.1-2-9.3c0-4.3,0.7-7.4,2-9.4C86.6,92.3,89.1,91.3,92.9,91.3z
		 M124.5,114.6v-2.4c0-1.2-0.1-2-0.2-2.4c-0.1-0.3-0.3-0.7-0.4-1c-0.1-0.4-0.5-0.5-1.1-0.5c-0.5,0-1,0.1-1.2,0.3
		c-0.5,0.4-0.8,2.1-0.8,5.3v0.7c0,2.2,0.1,3.7,0.2,4.5c0.1,0.7,0.3,1.2,0.6,1.4c0.3,0.2,0.7,0.3,1.2,0.3c0.8,0,1.3-0.4,1.5-1.3
		C124.4,118.7,124.5,117,124.5,114.6z M122.6,101.9c3.8,0,6.3,1,7.6,3c1.3,2,2,5.1,2,9.5c0,4.3-0.7,7.4-2,9.3
		c-1.3,1.9-3.8,2.9-7.6,2.9c-3.7,0-6.3-1-7.6-2.9c-1.3-2-2-5.1-2-9.3c0-4.3,0.7-7.4,2-9.4C116.3,102.9,118.8,101.9,122.6,101.9z"/>
	<path class="st2" d="M122.6,127.5c-4.1,0-6.9-1.1-8.5-3.3c-1.5-2.2-2.2-5.4-2.2-9.9c0-1.1,0-2.1,0.1-3l-5,15.7H96.9l4.1-12.9
		c-1.5,1.9-4.3,2.9-8.1,2.9c-4.1,0-6.9-1.1-8.5-3.3c-1.5-2.2-2.2-5.4-2.2-9.9c0-4.5,0.7-7.8,2.1-10c1.5-2.3,4.4-3.5,8.5-3.5
		c4.1,0,7,1.2,8.4,3.4c1.4,2.2,2.1,5.4,2.1,10c0,1,0,2-0.1,2.9l5-15.8h10.2l-4.2,13c1.6-2,4.3-3,8.1-3c4.1,0,7,1.2,8.4,3.4
		c1.4,2.2,2.1,5.4,2.1,10c0,4.5-0.7,7.8-2.2,9.9C129.6,126.4,126.7,127.5,122.6,127.5z M122.6,102.9c-3.4,0-5.7,0.9-6.8,2.6
		c-1.2,1.8-1.8,4.8-1.8,8.9c0,4,0.6,7,1.8,8.8c1.1,1.6,3.4,2.5,6.8,2.5c3.4,0,5.7-0.8,6.8-2.5c1.2-1.8,1.8-4.7,1.8-8.8
		c0-4.1-0.6-7.1-1.8-8.9C128.3,103.7,126,102.9,122.6,102.9z M99.6,125h6l10.3-32.2h-6L99.6,125z M92.9,92.3c-3.4,0-5.7,0.9-6.8,2.6
		c-1.2,1.8-1.8,4.8-1.8,8.9c0,4,0.6,7,1.8,8.8c1.1,1.6,3.4,2.5,6.8,2.5c3.4,0,5.7-0.8,6.8-2.5c1.2-1.8,1.8-4.7,1.8-8.8
		c0-4.1-0.6-7.1-1.8-8.9C98.6,93.1,96.3,92.3,92.9,92.3z M68.8,127.5c-4,0-7.8-0.6-11.3-1.8l-0.8-0.3l1.1-11.4l1.1,0.3
		c6,1.6,8,1.9,8.7,1.9c1,0,1.3-0.2,1.3-0.2c0.1-0.1,0.3-0.4,0.3-1.2c0-1.4-0.4-1.4-0.6-1.4c-0.1,0-0.2,0-0.4,0.3l-0.3,0.6l-11-1.3
		V91.1h23.7v10.7h-11v1.3c0.7-0.1,1.5-0.2,2.4-0.2c4.7,0,10.3,2,10.3,11.3C82.3,123,77.7,127.5,68.8,127.5z M59,124.1
		c3,0.9,6.4,1.4,9.9,1.4c7.7,0,11.5-3.7,11.5-11.2c0-6.4-2.6-9.3-8.3-9.3c-1.1,0-2.2,0.1-3.1,0.4l-1.3,0.4v-5.9h11v-6.7H59v18.3
		l7.9,0.9c0.5-0.5,1.1-0.8,1.8-0.8c0.8,0,2.6,0.3,2.6,3.4c0,1.1-0.2,1.9-0.7,2.5c-0.5,0.7-1.5,1-2.8,1c-0.6,0-2.2-0.2-8-1.7
		L59,124.1z M42.1,127.5c-4.5,0-8.1-0.9-10.6-2.8c-2.7-1.9-4-4.7-4-8.3c0-2.1,0.4-3.8,1.3-5.1c0.7-1,1.6-1.8,2.7-2.5
		c-1.1-0.9-1.9-1.9-2.5-2.9c-0.7-1.4-1.1-3.2-1.1-5.3c0-3.2,1.3-5.8,3.9-7.7c2.5-1.8,5.9-2.7,10.2-2.7c4.3,0,7.7,0.9,10.2,2.6
		c2.6,1.8,3.9,4.4,3.9,7.6c0,2.2-0.4,4-1,5.3c-0.5,1-1.4,2-2.5,2.8c2.6,1.7,3.9,4.2,3.9,7.5c0,3.7-1.3,6.6-3.9,8.5
		C50.2,126.6,46.6,127.5,42.1,127.5z M42,92.3c-3.8,0-6.9,0.8-9,2.3c-2.1,1.5-3.1,3.5-3.1,6.1c0,1.8,0.3,3.2,0.9,4.3
		c0.6,1.1,1.6,2.1,3,3.1l0.4,0.3v1.4l-0.6,0.3c-1.4,0.7-2.4,1.5-3.1,2.5c-0.6,0.9-0.9,2.3-0.9,4c0,3,1,5.1,3.2,6.7
		c2.2,1.6,5.4,2.4,9.5,2.4c4,0,7.2-0.8,9.3-2.5c2.1-1.6,3.1-3.9,3.1-7c0-3-1.3-5.1-4.1-6.4l-0.6-0.3v-1.4l0.4-0.3
		c1.4-0.9,2.4-1.9,2.9-2.9c0.5-1,0.8-2.5,0.8-4.4c0-2.6-1-4.5-3-5.9C48.9,93,45.9,92.3,42,92.3z M122.7,121.8
		c-0.7,0-1.3-0.2-1.8-0.5c-0.5-0.4-0.8-1-1-2c-0.2-0.8-0.2-2.3-0.2-4.7v-0.7c0-4.4,0.5-5.6,1.2-6.1c0.4-0.3,1-0.5,1.8-0.5
		c1.4,0,1.9,0.7,2,1.2c0.2,0.3,0.3,0.7,0.4,1.1c0.1,0.3,0.3,1,0.3,2.7v2.4c0,2.5-0.1,4.2-0.3,5.2C124.9,121.1,124,121.8,122.7,121.8
		z M122.2,109.4c-0.1,0.2-0.4,1-0.4,4.5v0.7c0,2.7,0.1,3.8,0.2,4.3c0.1,0.7,0.3,0.9,0.3,0.9c0.1,0.1,0.3,0.1,0.5,0.1
		c0.3,0,0.4,0,0.5-0.5c0.1-0.6,0.3-1.8,0.3-4.7v-2.4c0-1.6-0.1-1.9-0.1-2c-0.1-0.4-0.2-0.7-0.4-1c0,0-0.1,0-0.2,0
		C122.3,109.3,122.2,109.4,122.2,109.4z M42.1,119.8c-2.2,0-3.5-1.4-3.5-3.9c0-1.3,0.7-2.6,2.2-3.7l0.6-0.4l0.6,0.4
		c1.2,0.7,2,1.4,2.5,2c0.6,0.6,0.9,1.5,0.9,2.5C45.3,118.6,44.2,119.8,42.1,119.8z M41.5,114.2c-0.6,0.6-0.9,1.1-0.9,1.7
		c0,1.8,0.7,1.9,1.5,1.9c1,0,1.3-0.3,1.3-1.3c0-0.5-0.1-0.8-0.4-1.1C42.7,115.1,42.3,114.8,41.5,114.2z M93,111.3
		c-0.7,0-1.3-0.2-1.8-0.5c-0.5-0.4-0.8-1.1-1-2c-0.2-0.8-0.2-2.3-0.2-4.7v-0.7c0-4.4,0.5-5.6,1.2-6.1c0.4-0.3,1-0.5,1.8-0.5
		c1.4,0,1.9,0.7,2,1.2c0.2,0.3,0.3,0.7,0.5,1.1c0.1,0.3,0.3,0.8,0.3,2.7v2.4c0,2.5-0.1,4.2-0.3,5.2C95.2,110.5,94.3,111.3,93,111.3z
		 M92.5,98.8c-0.1,0.2-0.4,1-0.4,4.5v0.7c0,2.7,0.1,3.8,0.2,4.3c0.1,0.7,0.3,0.9,0.3,0.9c0.1,0.1,0.3,0.1,0.5,0.1
		c0.3,0,0.4,0,0.5-0.5c0.1-0.5,0.3-1.8,0.3-4.7v-2.4c0-1.6-0.1-1.9-0.1-2c-0.1-0.4-0.3-0.7-0.4-1c0,0-0.1,0-0.2,0
		C92.6,98.7,92.5,98.8,92.5,98.8z M42.6,106.3l-0.6-0.4c-1-0.7-1.8-1.2-2.2-1.8c-0.6-0.6-0.9-1.4-0.9-2.4c0-2,1.2-3.1,3.3-3.1
		c2.2,0,3.4,1.3,3.4,3.5c0,1.3-0.8,2.5-2.4,3.8L42.6,106.3z M42.2,100.7c-1.1,0-1.3,0.4-1.3,1.1c0,0.5,0.1,0.8,0.3,1.1
		c0.2,0.2,0.5,0.5,1.2,1c0.7-0.7,1.1-1.3,1.1-1.7C43.6,101,43.3,100.7,42.2,100.7z"/>
</g>
</svg>
